<svg width="100%" height="100%" preserveAspectRatio="xMidYMid meet" viewBox="0 0.000002736065198405413 152.95477294921875 147" overflow="visible"><defs id="SvgjsDefs1051"></defs><g id="SvgjsG1052" transform="scale(1.5711842667806755)" opacity="1"><g id="SvgjsG1053" class="ER6DCjZpUR" transform="translate(27.724633867130287, -0.15873717545404234) scale(0.42217796137851255)" light-content="false" fill="#ffffff"><path d="M43.293 66.01c-1.177.322-1.862.816-1.929 1.36-.171 1.416 1.099 1.622 2.722 1.688h11c1.623-.065 2.895-.271 2.723-1.688-.064-.544-.75-1.038-1.929-1.36-.571-1.404-3.147-2.465-6.323-2.476-3.106.007-5.692 1.07-6.264 2.476zm-6.971 11.822c-4.418 1.422-2.508 8.818 1.91 7.395 1.346-.433 2.859-.724 4.495-.916-.801-.539-1.428-1.176-1.828-1.875 2.198.795 5.257 1.287 8.638 1.287 3.451 0 6.568-.514 8.775-1.337-.392.704-1.013 1.345-1.808 1.892 1.722.19 3.312.492 4.737.949 4.419 1.424 6.328-5.973 1.91-7.395-3.842-1.236-8.479-1.938-13.416-1.938s-9.57.702-13.413 1.938zm-5.274-33.204c-12.503-.165-13.194-5.053-13.194-.628 0 4.42.767 16.627 13.193 16.648 5.538 0 10.101-3.097 10.719-7.084a41.028 41.028 0 0 0-5.268-2.174 3 3 0 0 1 .594 2.379 2.989 2.989 0 0 1-.669 1.424c1.39.047 2.632-.037 3.628-.236-.896 1.271-3.303 1.955-6.113 1.589-2.831-.366-5.213-1.688-6.035-3.196.952.452 2.151.858 3.502 1.176a2.996 2.996 0 0 1-.239-1.801 3.003 3.003 0 0 1 1.977-2.32c-4.012-1.02-7.755-1.401-10.632-1.176 2.422-2.417 7.528-3.196 12.845-1.671 2.357.676 4.439 1.714 6.094 2.951-1.256-3.392-5.438-5.881-10.402-5.881zm37.057 0c-4.942 0-9.108 2.467-10.388 5.834 1.646-1.217 3.705-2.238 6.033-2.906 5.315-1.524 10.424-.746 12.845 1.671-2.875-.225-6.619.156-10.632 1.176a3.01 3.01 0 0 1 1.74 4.121c1.351-.316 2.549-.724 3.502-1.176-.822 1.508-3.205 2.829-6.034 3.196-2.811.366-5.218-.317-6.113-1.589.996.199 2.237.283 3.627.236a3.028 3.028 0 0 1-.67-1.424 3.02 3.02 0 0 1 .594-2.379 41.035 41.035 0 0 0-5.226 2.154c.604 3.997 5.175 7.104 10.724 7.104C80.533 60.627 81.3 48.419 81.3 44c0-4.425-.693.463-13.195.628zM6.887 51.475C4.819 20.673 18.242.376 49.488.376h.272c31.245 0 44.67 20.296 42.602 51.099-1.67 24.858-19.209 47.864-42.737 47.864-23.529 0-41.07-23.005-42.738-47.864zm24.292-10.2c6.63.057 13.467 4.008 13.984 10.632.019.241.029.487.029.733 0 1.908-.496 3.551-1.326 4.953l-2.386 4.031 4.565-1.044c1.306-.3 2.553-.399 3.508-.399.962.002 2.233.104 3.56.409l4.576 1.048-2.396-4.037c-.834-1.404-1.331-3.051-1.331-4.961 0-.246.01-.492.027-.733.517-6.607 7.32-10.555 13.935-10.631 9.343-.559 13.925-10.34 12.3-18.745-4.003-20.737-28.547-13.233-25.915.297 2.727 14.005 17.379 8.692 16.129 1.787-1.312-7.246-7.541-4.655-6.101-2.064 0 0 1.34 2.265-.42 3.266-2.251 1.28-3.503-.893-3.503-.893-5.01-9.002 11.828-15.836 14.48-1.186 2.373 13.112-21.145 20.009-25.032.031C48.1 14.708 54.195 7.875 61.807 5.715a48.478 48.478 0 0 0-5.798-.976c-.771.271-1.416.519-1.931.745-.771.337-1.37.668-1.795.994-.426.332-.855.8-1.287 1.406-.428.595-.907 1.397-1.441 2.409-.534-1.012-1.014-1.814-1.442-2.409-.433-.606-.861-1.075-1.286-1.406-.425-.326-1.023-.657-1.795-.994a29.68 29.68 0 0 0-1.964-.756 48.072 48.072 0 0 0-5.82.971c7.638 2.142 13.768 8.987 12 18.07-3.888 19.979-27.404 13.082-25.03-.031 2.652-14.65 19.49-7.816 14.479 1.186 0 0-1.252 2.172-3.503.893-1.76-1.001-.42-3.266-.42-3.266 1.442-2.59-4.788-5.181-6.1 2.064-1.25 6.905 13.402 12.219 16.128-1.787 2.633-13.53-21.913-21.034-25.916-.297-1.621 8.403 2.957 18.18 12.293 18.744zm-4.962 22.127C18.017 61.221 14.501 53.335 14.501 44c0-4.172 2.087-5.61 5.044-4.974-3.529-3.521-5.584-8.321-5.497-13.71-2.817 7.124-3.82 15.86-3.147 25.888.491 7.313 2.412 14.526 5.442 21.002.386-2.633 1.772-5.115 4.025-6.754 2.073-1.511 4.061-2.102 5.849-2.05zm6.157 13.592c1.367-1.258 3.479-2.135 6.131-2.762l3.739-.89-2.859-2.567c-1.445-1.295-1.805-3.153-1.134-4.765l1.62-3.883-4.039 1.177a17.383 17.383 0 0 1-4.788.697 21.26 21.26 0 0 1-2.554-.159c5.021 1.849 7.529 9.015 3.884 13.152zM72.945 63.4c1.764-.031 3.718.567 5.755 2.051 2.338 1.699 3.743 4.309 4.063 7.053 3.112-6.551 5.084-13.873 5.584-21.301.676-10.098-.381-18.887-3.289-26.037.129 5.456-1.937 10.316-5.506 13.871 2.986-.665 5.1.766 5.1 4.962 0 9.334-3.511 17.218-11.707 19.401zm-6.33 13.504c-3.518-4.141-1.033-11.189 3.922-13.045-.773.092-1.583.142-2.428.144a17.22 17.22 0 0 1-4.758-.69l-4.023-1.162 1.605 3.867c.666 1.604.293 3.465-1.168 4.767l-2.875 2.562 3.744.898c2.565.61 4.62 1.456 5.981 2.659zm5.131-2.111c-4.37-1.327-1.074-9.27 4.367-5.209 4.867 3.63-.653 13.979-8.232 8.486a6.97 6.97 0 0 1-.604-.49c1.179 1.422 1.531 3.275.828 5.71-1.06 3.673-3.349 4.573-6.701 4.554-3.896-.025-8.325-1.261-11.857-1.261s-7.961 1.235-11.858 1.261c-3.353.021-5.643-.881-6.702-4.554-.717-2.487-.334-4.366.908-5.802a7.769 7.769 0 0 1-.707.582c-7.578 5.492-13.099-4.856-8.232-8.486 5.441-4.061 8.737 3.882 4.367 5.209 0 0-.944.121-1.257-.654-.313-.774.767-1.285.767-1.285.96-.293.603-1.266.155-1.896-1.131-1.593-5.853.771-3.066 5.125 2.707 4.229 11.516-.845 6.986-8.008-4.242-6.704-15.711.61-12.197 8.651 7.056 12.107 18.204 20.681 30.915 20.681 12.278 0 23.101-7.998 30.183-19.458 5.199-8.52-7.195-16.906-11.645-9.874-4.53 7.163 4.279 12.237 6.986 8.008 2.787-4.354-1.937-6.718-3.065-5.125-.45.631-.808 1.604.154 1.896 0 0 1.079.511.767 1.285-.317.775-1.26.654-1.26.654zm-34.193 5.635c.428-1.023 3.333-2.926 6.417-3.408 3.412-.535 4.974.176 5.598.983.623-.808 2.186-1.521 5.597-.983 3.134.49 6.083 2.446 6.437 3.457-3.521-.966-7.67-1.524-12.114-1.524-4.369-.002-8.454.538-11.935 1.475zM48.12 36.392c.426-.761.906-1.788 1.438-3.083.532 1.295 1.012 2.322 1.438 3.083.43.775.857 1.375 1.281 1.799.425.416 1.021.84 1.789 1.271.769.431 1.82.926 3.156 1.486-1.336.56-2.389 1.056-3.156 1.487-.77.432-1.364.854-1.789 1.271-.424.425-.853 1.024-1.281 1.799-.426.761-.905 1.788-1.438 3.083-.532-1.295-1.011-2.322-1.438-3.083-.431-.775-.858-1.375-1.282-1.799-.424-.417-1.02-.839-1.789-1.271-.769-.431-1.82-.927-3.157-1.487 1.337-.561 2.389-1.056 3.157-1.486.769-.432 1.365-.855 1.789-1.271.424-.424.851-1.024 1.282-1.799z"></path></g><g id="SvgjsG1054" class="text" transform="translate(48.25, 92.7700016784668) scale(1)" light-content="false" fill="#ffffff"><path d="M-48.25 0L-45.06 0L-45.06 -2.05C-43.65 -0.16 -41.72 0.79 -39.26 0.79C-38.48 0.79 -37.64 0.64 -36.74 0.34C-35.84 0.03 -35.01 -0.52 -34.25 -1.33C-33.49 -2.14 -32.85 -3.26 -32.34 -4.69C-31.84 -6.11 -31.58 -7.95 -31.58 -10.2C-31.58 -11.78 -31.76 -13.15 -32.12 -14.31C-32.49 -15.47 -32.95 -16.49 -33.53 -17.37C-34.11 -18.25 -34.77 -19.03 -35.52 -19.7C-36.27 -20.38 -37.04 -21.01 -37.81 -21.59C-38.58 -22.18 -39.34 -22.76 -40.09 -23.35C-40.84 -23.94 -41.51 -24.58 -42.08 -25.27C-42.66 -25.96 -43.13 -26.75 -43.49 -27.64C-43.85 -28.53 -44.03 -29.58 -44.03 -30.79C-44.03 -32 -43.92 -33.05 -43.68 -33.93C-43.45 -34.8 -43.13 -35.53 -42.73 -36.11C-42.33 -36.68 -41.86 -37.11 -41.32 -37.38C-40.79 -37.66 -40.21 -37.79 -39.61 -37.79C-39.28 -37.79 -38.9 -37.71 -38.47 -37.56C-38.04 -37.4 -37.63 -37.13 -37.25 -36.74C-36.87 -36.35 -36.55 -35.83 -36.28 -35.17C-36.02 -34.52 -35.89 -33.69 -35.89 -32.7L-35.89 -28.21L-32.7 -28.21L-32.7 -40.25L-35.89 -40.25L-35.89 -38.58C-36.18 -38.99 -36.51 -39.35 -36.88 -39.65C-37.26 -39.96 -37.65 -40.21 -38.07 -40.4C-38.49 -40.6 -38.92 -40.74 -39.36 -40.84C-39.8 -40.94 -40.22 -40.99 -40.63 -40.99C-41.44 -40.99 -42.26 -40.81 -43.11 -40.44C-43.96 -40.08 -44.74 -39.49 -45.44 -38.67C-46.14 -37.85 -46.72 -36.79 -47.17 -35.48C-47.62 -34.17 -47.84 -32.57 -47.84 -30.67C-47.84 -29.11 -47.67 -27.76 -47.31 -26.62C-46.96 -25.47 -46.49 -24.48 -45.91 -23.63C-45.32 -22.78 -44.66 -22.04 -43.92 -21.42C-43.17 -20.79 -42.41 -20.19 -41.63 -19.61C-40.85 -19.04 -40.09 -18.47 -39.35 -17.9C-38.6 -17.33 -37.94 -16.68 -37.35 -15.95C-36.77 -15.22 -36.3 -14.37 -35.95 -13.4C-35.6 -12.44 -35.42 -11.29 -35.42 -9.96C-35.42 -8.57 -35.56 -7.4 -35.83 -6.45C-36.1 -5.49 -36.47 -4.71 -36.94 -4.12C-37.41 -3.52 -37.95 -3.09 -38.55 -2.81C-39.16 -2.54 -39.79 -2.4 -40.46 -2.4C-40.93 -2.4 -41.43 -2.5 -41.97 -2.7C-42.5 -2.89 -43 -3.22 -43.46 -3.69C-43.92 -4.16 -44.3 -4.79 -44.6 -5.57C-44.91 -6.35 -45.06 -7.33 -45.06 -8.53L-45.06 -13.27L-48.25 -13.27Z M-20.57 -14.65L-20.57 -6.06C-20.7 -5.56 -20.88 -5.07 -21.11 -4.61C-21.33 -4.16 -21.58 -3.76 -21.84 -3.43C-22.1 -3.1 -22.38 -2.83 -22.66 -2.64C-22.94 -2.44 -23.21 -2.34 -23.47 -2.34C-24.07 -2.34 -24.55 -2.79 -24.9 -3.69C-25.25 -4.59 -25.43 -5.9 -25.43 -7.62C-25.43 -8.73 -25.37 -9.71 -25.25 -10.55C-25.14 -11.39 -24.9 -12.09 -24.55 -12.67C-24.2 -13.25 -23.71 -13.7 -23.07 -14.02C-22.44 -14.34 -21.6 -14.55 -20.57 -14.65ZM-28.01 -21.77L-24.52 -21.18C-24.42 -22.71 -24.21 -23.81 -23.88 -24.51C-23.54 -25.2 -23.07 -25.55 -22.44 -25.55C-22.21 -25.55 -21.98 -25.48 -21.75 -25.36C-21.53 -25.23 -21.33 -24.98 -21.15 -24.59C-20.98 -24.21 -20.83 -23.67 -20.73 -22.97C-20.62 -22.27 -20.57 -21.33 -20.57 -20.16L-20.57 -17.46C-21.78 -17.29 -22.9 -17.03 -23.92 -16.68C-24.95 -16.34 -25.84 -15.81 -26.6 -15.07C-27.36 -14.34 -27.96 -13.36 -28.39 -12.14C-28.82 -10.92 -29.03 -9.36 -29.03 -7.44C-29.03 -6.09 -28.91 -4.91 -28.67 -3.88C-28.42 -2.86 -28.1 -2 -27.69 -1.3C-27.28 -0.61 -26.81 -0.09 -26.28 0.26C-25.75 0.62 -25.2 0.79 -24.61 0.79C-23.65 0.79 -22.88 0.57 -22.29 0.12C-21.71 -0.33 -21.13 -1.02 -20.57 -1.93L-20.57 0L-14.5 0L-14.5 -3.31L-16.9 -3.31L-16.9 -20.1C-16.9 -21.84 -17.05 -23.26 -17.33 -24.37C-17.61 -25.49 -18 -26.36 -18.5 -27C-19 -27.63 -19.58 -28.07 -20.24 -28.32C-20.91 -28.56 -21.62 -28.68 -22.38 -28.68C-23.07 -28.68 -23.72 -28.58 -24.35 -28.39C-24.97 -28.19 -25.53 -27.84 -26.03 -27.32C-26.53 -26.8 -26.95 -26.1 -27.3 -25.21C-27.66 -24.32 -27.89 -23.17 -28.01 -21.77Z M-13.8 -40.25L-13.8 -36.97L-11.4 -36.97L-11.4 -6.83C-11.4 -5.46 -11.26 -4.34 -10.99 -3.46C-10.71 -2.58 -10.3 -1.88 -9.76 -1.36C-9.21 -0.84 -8.53 -0.49 -7.71 -0.29C-6.88 -0.1 -5.92 0 -4.8 0L-4.07 0L-4.07 -3.31L-4.86 -3.31C-5.35 -3.31 -5.78 -3.34 -6.14 -3.4C-6.5 -3.46 -6.8 -3.59 -7.03 -3.79C-7.27 -4 -7.44 -4.31 -7.56 -4.73C-7.68 -5.15 -7.73 -5.73 -7.73 -6.47L-7.73 -40.25Z M-2.4 0L0.56 0L0.56 -1.93C1.01 -1.17 1.53 -0.58 2.14 -0.16C2.74 0.26 3.52 0.47 4.45 0.47C4.94 0.47 5.48 0.35 6.06 0.1C6.65 -0.14 7.19 -0.54 7.69 -1.1C8.19 -1.66 8.6 -2.39 8.94 -3.3C9.27 -4.2 9.43 -5.32 9.43 -6.65C9.43 -8.21 9.23 -9.52 8.83 -10.58C8.43 -11.63 7.93 -12.53 7.32 -13.29C6.72 -14.04 6.07 -14.7 5.38 -15.28C4.68 -15.85 4.03 -16.46 3.43 -17.08C2.82 -17.71 2.32 -18.41 1.92 -19.19C1.52 -19.97 1.32 -20.96 1.32 -22.15C1.32 -22.77 1.38 -23.3 1.49 -23.72C1.61 -24.14 1.77 -24.47 1.96 -24.73C2.16 -24.98 2.38 -25.16 2.62 -25.27C2.87 -25.38 3.12 -25.43 3.37 -25.43C3.66 -25.43 3.93 -25.35 4.17 -25.2C4.42 -25.04 4.63 -24.78 4.8 -24.42C4.98 -24.06 5.12 -23.58 5.23 -23C5.34 -22.41 5.39 -21.69 5.39 -20.83L5.39 -18.49L8.53 -18.49L8.53 -27.89L5.6 -27.89L5.6 -26.28C5.26 -27.02 4.82 -27.59 4.28 -27.98C3.73 -28.37 3.13 -28.56 2.46 -28.56C1.88 -28.56 1.3 -28.42 0.73 -28.12C0.17 -27.83 -0.34 -27.41 -0.78 -26.85C-1.22 -26.29 -1.57 -25.61 -1.83 -24.8C-2.09 -23.99 -2.23 -23.07 -2.23 -22.03C-2.23 -20.59 -2.03 -19.37 -1.63 -18.37C-1.23 -17.37 -0.72 -16.5 -0.12 -15.76C0.49 -15.02 1.14 -14.36 1.83 -13.77C2.52 -13.18 3.17 -12.57 3.78 -11.92C4.38 -11.28 4.89 -10.56 5.29 -9.76C5.69 -8.96 5.89 -7.98 5.89 -6.83C5.89 -5.97 5.82 -5.27 5.67 -4.73C5.52 -4.19 5.33 -3.77 5.1 -3.46C4.86 -3.14 4.6 -2.93 4.31 -2.81C4.01 -2.7 3.72 -2.64 3.43 -2.64C3.12 -2.64 2.8 -2.71 2.48 -2.87C2.15 -3.03 1.87 -3.3 1.61 -3.69C1.36 -4.08 1.15 -4.61 0.98 -5.27C0.82 -5.94 0.73 -6.78 0.73 -7.79L0.73 -10.25L-2.4 -10.25Z M11.78 -27.89L11.78 -24.61L14.18 -24.61L14.18 -3.31L11.78 -3.31L11.78 0L20.77 0L20.77 -3.31L17.84 -3.31L17.84 -27.89ZM12.8 -35.77C12.8 -34.97 13.06 -34.31 13.58 -33.78C14.1 -33.25 14.76 -32.99 15.56 -32.99C16.34 -32.99 17 -33.25 17.55 -33.78C18.1 -34.31 18.37 -34.97 18.37 -35.77C18.37 -36.55 18.1 -37.22 17.55 -37.76C17 -38.31 16.34 -38.58 15.56 -38.58C14.76 -38.58 14.1 -38.31 13.58 -37.76C13.06 -37.22 12.8 -36.55 12.8 -35.77Z M29.77 -2.75C29.1 -2.75 28.6 -3 28.27 -3.5C27.94 -4 27.77 -4.78 27.77 -5.83L27.77 -24.61L32.64 -24.61L32.64 -27.89L27.77 -27.89L27.77 -36.36L24.11 -36.36L24.11 -27.89L20.77 -27.89L20.77 -24.61L24.11 -24.61L24.11 -5.83C24.11 -3.62 24.58 -1.98 25.5 -0.89C26.43 0.19 27.7 0.73 29.3 0.73C29.84 0.73 30.36 0.66 30.85 0.53C31.34 0.39 31.78 0.22 32.18 0.03C32.58 -0.17 32.93 -0.38 33.24 -0.62C33.54 -0.85 33.8 -1.06 34.01 -1.26L32.4 -4.07C32.03 -3.74 31.64 -3.44 31.23 -3.16C30.82 -2.89 30.33 -2.75 29.77 -2.75Z M43.04 -14.65L43.04 -6.06C42.9 -5.56 42.72 -5.07 42.5 -4.61C42.27 -4.16 42.03 -3.76 41.76 -3.43C41.5 -3.1 41.23 -2.83 40.94 -2.64C40.66 -2.44 40.39 -2.34 40.14 -2.34C39.53 -2.34 39.05 -2.79 38.7 -3.69C38.35 -4.59 38.17 -5.9 38.17 -7.62C38.17 -8.73 38.23 -9.71 38.35 -10.55C38.47 -11.39 38.7 -12.09 39.05 -12.67C39.4 -13.25 39.9 -13.7 40.53 -14.02C41.17 -14.34 42 -14.55 43.04 -14.65ZM35.6 -21.77L39.08 -21.18C39.18 -22.71 39.39 -23.81 39.73 -24.51C40.06 -25.2 40.54 -25.55 41.16 -25.55C41.4 -25.55 41.63 -25.48 41.85 -25.36C42.08 -25.23 42.28 -24.98 42.45 -24.59C42.63 -24.21 42.77 -23.67 42.88 -22.97C42.98 -22.27 43.04 -21.33 43.04 -20.16L43.04 -17.46C41.83 -17.29 40.71 -17.03 39.68 -16.68C38.66 -16.34 37.76 -15.81 37 -15.07C36.24 -14.34 35.64 -13.36 35.21 -12.14C34.79 -10.92 34.57 -9.36 34.57 -7.44C34.57 -6.09 34.69 -4.91 34.94 -3.88C35.18 -2.86 35.51 -2 35.92 -1.3C36.33 -0.61 36.8 -0.09 37.32 0.26C37.85 0.62 38.41 0.79 38.99 0.79C39.95 0.79 40.72 0.57 41.31 0.12C41.89 -0.33 42.47 -1.02 43.04 -1.93L43.04 0L49.1 0L49.1 -3.31L46.7 -3.31L46.7 -20.1C46.7 -21.84 46.56 -23.26 46.27 -24.37C45.99 -25.49 45.6 -26.36 45.1 -27C44.6 -27.63 44.02 -28.07 43.36 -28.32C42.7 -28.56 41.98 -28.68 41.22 -28.68C40.54 -28.68 39.88 -28.58 39.26 -28.39C38.63 -28.19 38.07 -27.84 37.57 -27.32C37.08 -26.8 36.65 -26.1 36.3 -25.21C35.95 -24.32 35.71 -23.17 35.6 -21.77Z"></path></g></g></svg>