<svg width="27875" height="32768" viewBox="0 0 27875 32768" fill="none" xmlns="http://www.w3.org/2000/svg">
<path d="M11882.4 21732.3C11500.5 21838.9 11278.1 22002.5 11256.4 22182.6C11200.9 22651.5 11613.1 22719.7 12139.8 22741.5H15709.8C16236.5 22720 16649.3 22651.8 16593.5 22182.6C16572.7 22002.5 16350.1 21838.9 15967.5 21732.3C15782.1 21267.4 14939.6 15625.6 13908.9 15621.9C12900.9 15624.3 12068.1 21266.8 11882.4 21732.3ZM9620.06 25646.7C8186.24 26117.6 8806.11 28566.5 10239.9 28095.3C10676.8 27951.9 11167.8 27855.6 11698.8 27792C11438.8 27613.5 11235.3 27402.6 11105.5 27171.2C11818.8 27434.4 12795.7 28095.3 13893 28095.3C15013 28095.3 16040.5 27427.1 16756.7 27154.6C16629.5 27387.7 16428 27600 16170 27781.1C16728.8 27844 17244.8 27944 17707.3 28095.3C19141.5 28566.8 19761 26117.6 18327.2 25646.7C17080.3 25237.5 15575.4 25005 13973.1 25005C12370.9 25005 10867.3 25237.5 9620.06 25646.7ZM7908.43 14652.4C3850.69 14597.8 3626.43 12979.3 3626.43 14444.5C3626.43 15908 3875.35 19949.9 7908.11 19956.9C9705.42 19956.9 11186.3 18931.4 11386.9 17611.3C10834 17331.2 10262.7 17090.7 9677.18 16891.4C9761.88 17001.5 9822.83 17128.5 9856.06 17264.3C9889.28 17400 9894.02 17541.4 9869.96 17679.1C9840.16 17853.3 9765.19 18016.1 9652.84 18150.7C10104 18166.2 10507 18138.4 10830.3 18072.5C10539.5 18493.4 9758.32 18719.8 8846.36 18598.7C7927.58 18477.5 5862.52 17418.9 5595.75 16919.6C5904.71 17069.2 7585.84 17824.5 8024.29 17929.8C7938.56 17744 7911.46 17535.6 7946.73 17333.5C7976.75 17158.7 8052.08 16995.2 8164.91 16860.1C8277.73 16725.1 8423.94 16623.3 8588.35 16565.3C7286.29 16227.5 4895.06 16490.1 3961.36 16564.6C4747.4 15764.3 7580.97 15117.7 9306.56 15622.6C10071.5 15846.4 10747.2 16190.1 11284.3 16599.7C10876.7 15476.6 9519.46 14652.4 7908.43 14652.4ZM19935 14652.4C18331.1 14652.4 16979 15469.3 16563.6 16584.2C17097.8 16181.2 17766.1 15843.1 18521.6 15621.9C20246.5 15117.3 22947.7 15764.3 23733.4 16564.6C22800.3 16490.1 20542.2 16226.9 19239.8 16564.6C19369.1 16610.4 19487.6 16683.3 19587.5 16778.7C19687.5 16874.2 19766.6 16990 19819.8 17118.6C19873.1 17247.3 19899.2 17385.9 19896.6 17525.6C19894 17665.2 19862.6 17802.7 19804.5 17929.1C20243 17824.5 21912.1 17069.2 22221.4 16919.6C21954.6 17418.9 19900.9 18476.5 18982.8 18598C18070.5 18719.2 17289.3 18493 16998.8 18071.9C17322.1 18137.7 17724.8 18165.6 18176 18150C18064 18015.1 17989 17852.5 17958.5 17678.5C17934.9 17540.7 17939.8 17399.5 17973 17263.8C18006.2 17128.1 18067 17001 18151.3 16890.8C17570.5 17088.5 17003.8 17326.8 16455.2 17604C16651.3 18927.4 18134.7 19956.2 19935.6 19956.2C23968.4 19949.9 24217.3 15907.7 24217.3 14444.5C24217.3 12979.3 23992.4 14597.8 19935 14652.4ZM67.1795 16919.6C-603.973 6720.61 3752.35 0 13893 0H13981.3C24121.6 0 28478.5 6720.28 27807.4 16919.6C27265.4 25150.4 21573.3 32768 13937.4 32768C6301.3 32768 608.515 25150.7 67.1795 16919.6ZM7950.95 13542.2C10102.7 13561.1 12321.5 14869.3 12489.3 17062.6C12495.5 17142.4 12498.8 17223.9 12498.8 17305.3C12498.8 17937.1 12337.8 18481.1 12068.4 18945.3L11294.1 20280L12775.6 19934.4C13199.4 19835 13604.1 19802.2 13914.1 19802.2C14226.3 19802.9 14638.8 19836.7 15069.4 19937.7L16554.5 20284.7L15709.8 18945.3C15439.1 18480.4 15345 17937.7 15345 17305.3C15345 17223.9 15348.2 17142.4 15353.7 17062.6C15521.5 14874.9 17729.4 13567.7 19876.2 13542.5C22908.4 13357.5 24395.5 10118.8 23868.1 7335.82C22569 469.52 14603.4 2954.2 15457.6 7434.16C16342.6 12071.4 21097.8 10312.2 20692.1 8025.86C20266.3 5626.61 18054.3 8972.49 18521.6 9830.4C18521.6 9830.4 20375.7 7414.3 19804.5 7745.74C19074 8169.57 19935 5478.4 19935 5478.4C18309 2497.72 20645.1 2884.66 21505.8 7735.48C22275.9 12077 15275.9 14360.7 14014.4 7745.74C13442.5 4745.52 15420.6 2483.02 17891 1767.82C17270.8 1621.35 16642.4 1513.43 16009.3 1444.65C15759.1 1534.38 15549.8 1616.5 15382.6 1691.33C15132.4 1802.91 14938 1912.51 14800.1 2020.46C14661.8 2130.39 14522.6 2285.35 14382.4 2486C14243.5 2683.01 14088 2948.57 13914.7 3283.65C13741.4 2948.57 13585.6 2683.01 13446.7 2486C13306.2 2285.35 13167.3 2130.05 13029.4 2020.46C12891.4 1912.51 12697.4 1802.91 12446.8 1691.33C12237.3 1600.23 12024.7 1516.73 11809.4 1441.01C11174 1508.62 10543.2 1615.99 9920.59 1762.52C12399.4 2471.76 14388.9 4738.24 13815.1 7745.74C12553.3 14361.1 5570.11 12077.4 6340.57 7735.48C7201.25 2884.66 9514.91 2497.72 7888.63 5478.4C7888.63 5478.4 8677.27 8158.97 7946.73 7735.48C7375.53 7404.03 9784.98 9830.4 9784.98 9830.4C10253 8972.82 7563.77 5626.94 7137.97 8025.86C6732.29 10312.2 11487.5 12071.7 12372.2 7434.16C13226.7 2954.2 5260.5 469.52 3961.36 7335.82C3435.27 10118.2 4921.02 13355.5 7950.95 13542.2ZM6340.57 20868.8C3679.33 20146.6 1705.58 15888.5 1705.58 12797.5C1705.58 11416.1 3215.56 12587 4175.23 12797.5C3029.92 11631.7 2362.99 10042.3 2391.22 8257.97C1476.99 10616.8 1151.47 13509.4 1369.89 16829.8C1529.24 19251.3 2152.68 21639.6 3136.05 23783.9C3261.32 22912.1 3711.13 22090.2 4442.33 21547.5C5115.1 21047.2 5760.29 20851.5 6340.57 20868.8ZM8338.77 25369.3C8782.42 24952.7 9467.85 24662.3 10328.5 24454.7L11542 24160L10239.9 23370.7C9770.97 22941.9 9459.42 22266.1 9677.18 21732.3L10771.9 20446.6L9461.04 20836.3C8956.15 20986.8 8433.11 21064.5 7907.13 21067.1C7630.05 21066.6 7353.26 21049 7078.25 21014.5C8707.78 21626.7 9521.73 23999.4 8338.77 25369.3ZM21505.8 20868.1C22078.2 20857.8 22712.4 21055.8 23373.5 21547.2C24132.3 22109.8 24588.3 22974 24692.1 23882.6C25702.1 21713.4 26342.1 19289 26504.3 16829.5C26723.7 13485.9 26380.7 10575.8 25436.9 8208.31C25478.8 10014.9 24808.3 11624.1 23650 12801.2C24619.1 12581 26128 11408.2 26128 12797.5C26128 15888.2 24165.7 20145.3 21505.8 20868.1ZM19451.4 25339.5C18309.7 23968.3 19116.2 21634.6 20724.3 21020.1C20473.4 21050.5 20210.5 21067.1 19936.3 21067.8C19413.6 21065.7 18893.8 20988.7 18392.1 20839.3L17086.5 20454.5L18176 21732.3C18392.1 22263.4 18298.6 22939.6 17824.5 23370.7L16295.2 24161.7L17510.3 24459C18342.8 24661 19009.7 24941.1 19451.4 25339.5ZM21116.6 24640.5C19698.4 24201.1 20768.1 21571.1 22533.9 22915.7C24113.4 24117.7 22322 27544.3 19862.3 25725.5C19794 25675.2 19728.6 25621.1 19666.3 25563.3C20048.9 26034.1 20163.1 26647.7 19935 27454C19591 28670.1 19415.1 30060.7 18327.2 30054.4C17062.8 30046.1 15084 32128.3 13937.8 32128.3C12791.5 32128.3 10725.8 30045.8 9461.04 30054.4C8372.85 30061.4 8232.32 28670.1 7888.63 27454C7655.94 26630.5 7780.24 26008.3 8183.32 25532.8C8110.61 25601.6 8034 25666 7953.87 25725.5C5494.49 27544 3702.69 24117.7 5282.24 22915.7C7048.07 21571.1 8117.76 24201.1 6699.51 24640.5C6699.51 24640.5 6393.15 24680.5 6291.56 24423.9C6189.98 24167.7 6540.49 23998.5 6540.49 23998.5C6852.05 23901.4 6736.19 23579.3 6590.79 23370.7C6223.74 22843.2 4691.25 23625.9 5595.75 25067.6C6474.28 26467.9 7761.74 26795.7 6291.56 24423.9C4914.86 22204.1 2764.12 22618 3904.56 25280.5C6194.53 29289.3 9812.52 32128.3 13937.8 32128.3C17922.5 32128.3 21435 29480 23733.4 25685.5C25420.7 22864.4 22969.8 22095.5 21525.6 24423.9C20055.4 26795.7 21342.8 26467.9 22221.4 25067.6C23125.9 23625.9 21592.7 22843.2 21226.6 23370.7C21080.6 23579.6 20964.4 23901.8 21276.6 23998.5C21276.6 23998.5 21626.8 24167.7 21525.6 24423.9C21422.7 24680.5 21116.6 24640.5 21116.6 24640.5ZM10019.6 26506.3C10158.5 26167.6 11101.3 25537.5 12102.2 25377.9C13209.5 25200.7 13716.4 25436.1 13918.9 25703.4C14121.1 25435.8 14628.4 25199.7 15735.4 25377.9C16752.5 25540.1 17709.6 26187.8 17824.5 26522.5C16681.8 26202.7 15335.2 26506.3 13893 26506.3C12475.1 26505.6 11149.3 26196.1 10019.6 26506.3ZM13449 11925.4C13587.3 11673.4 13693.2 7862.96 13865.8 7434.16C14038.5 7862.96 14244.1 11673.4 14382.4 11925.4C14521.9 12182 15871.7 11065.9 16009.3 11206.2C16147.2 11344 15129.5 12799.2 15378.7 12941.9C15628.3 13084.6 18982.8 12797.5 18982.8 12797.5C18549.2 12983 15627.7 13783.6 15378.7 13926.3C15128.8 14069.3 14936.1 14209.1 14798.1 14347.2C14660.5 14487.9 14521.3 14686.2 14382.4 14942.8C14244.1 15194.8 14081.9 15193.1 13908.9 15621.9C13736.2 15193.1 13587.6 15194.8 13449 14942.8C13449 14942.8 13170.6 14487.5 13032.9 14347.2C12895.3 14209.1 12701.9 14069.3 12452.3 13926.3C12202.8 13783.6 9280.27 12983 8846.36 12797.5C9280.27 12611.8 12203.1 13084.3 12452.3 12941.9C12701.9 12798.9 11671.8 11351.5 11809.4 11213.8C11947 11073.4 13309.1 12182 13449 11925.4Z" fill="#333333"/>
</svg>
