<svg width="31029" height="30879" viewBox="0 0 31029 30879" fill="none" xmlns="http://www.w3.org/2000/svg">
<path d="M30879 15364.5C30879 23850.1 24000.1 30729 15514.5 30729C7028.92 30729 150 23850.1 150 15364.5C150 6878.92 7028.92 0 15514.5 0C24000.1 0 30879 6878.92 30879 15364.5Z" fill="white"/>
<path d="M30879 15364.5C30879 23850.1 24000.1 30729 15514.5 30729C7028.92 30729 150 23850.1 150 15364.5C150 6878.92 7028.92 0 15514.5 0C24000.1 0 30879 6878.92 30879 15364.5Z" stroke="black"/>
<path d="M30879 15365C30879 23850.3 24000.1 30729 15514.5 30729C7028.92 30729 150 23850.3 150 15365" stroke="black" stroke-width="300"/>
<path d="M14596.9 17753.9C14426.2 17801.5 14326.9 17874.6 14317.2 17955.1C14292.4 18164.5 14476.6 18195 14711.9 18204.8H16306.9C16542.3 18195.2 16726.7 18164.7 16701.8 17955.1C16692.5 17874.6 16593 17801.5 16422.1 17753.9C16339.3 17546.2 15962.8 15025.4 15502.3 15023.8C15051.9 15024.8 14679.9 17545.9 14596.9 17753.9ZM13586.1 19502.8C12945.5 19713.2 13222.4 20807.3 13863.1 20596.8C14058.2 20532.8 14277.6 20489.7 14514.8 20461.3C14398.7 20381.6 14307.8 20287.3 14249.8 20183.9C14568.5 20301.5 15005 20596.8 15495.2 20596.8C15995.6 20596.8 16454.7 20298.3 16774.7 20176.5C16717.9 20280.7 16627.8 20375.5 16512.6 20456.4C16762.2 20484.5 16992.8 20529.2 17199.4 20596.8C17840.2 20807.5 18117 19713.2 17476.4 19502.8C16919.3 19320 16246.9 19216.1 15531 19216.1C14815.1 19216.1 14143.3 19320 13586.1 19502.8ZM12821.3 14590.6C11008.4 14566.2 10908.2 13843.1 10908.2 14497.7C10908.2 15151.6 11019.4 16957.5 12821.2 16960.6C13624.2 16960.6 14285.9 16502.4 14375.5 15912.6C14128.5 15787.5 13873.2 15680 13611.6 15591C13649.5 15640.2 13676.7 15696.9 13691.5 15757.6C13706.4 15818.2 13708.5 15881.4 13697.7 15942.9C13684.4 16020.7 13650.9 16093.5 13600.7 16153.6C13802.3 16160.6 13982.4 16148.1 14126.8 16118.7C13996.9 16306.7 13647.9 16407.9 13240.4 16353.8C12829.9 16299.6 11907.2 15826.7 11788.1 15603.6C11926.1 15670.4 12677.2 16007.9 12873.1 16054.9C12834.8 15971.9 12822.7 15878.8 12838.5 15788.5C12851.9 15710.4 12885.5 15637.4 12935.9 15577C12986.3 15516.7 13051.7 15471.2 13125.1 15445.3C12543.4 15294.4 11475 15411.7 11057.8 15445C11409 15087.4 12675 14798.5 13446 15024.1C13787.8 15124.1 14089.7 15277.7 14329.7 15460.7C14147.5 14958.8 13541.1 14590.6 12821.3 14590.6ZM18194.7 14590.6C17478.1 14590.6 16874 14955.6 16688.4 15453.7C16927.1 15273.7 17225.7 15122.6 17563.2 15023.8C18333.9 14798.3 19540.8 15087.4 19891.9 15445C19475 15411.7 18466 15294.1 17884.1 15445C17941.9 15465.4 17994.9 15498 18039.5 15540.6C18084.1 15583.3 18119.5 15635 18143.3 15692.5C18167.1 15750 18178.8 15811.9 18177.6 15874.3C18176.4 15936.7 18162.4 15998.1 18136.4 16054.6C18332.3 16007.9 19078.1 15670.4 19216.3 15603.6C19097.1 15826.7 18179.5 16299.2 17769.3 16353.5C17361.7 16407.6 17012.7 16306.6 16882.9 16118.4C17027.3 16147.8 17207.3 16160.3 17408.8 16153.3C17358.8 16093 17325.3 16020.4 17311.7 15942.6C17301.1 15881.1 17303.3 15818 17318.1 15757.3C17333 15696.7 17360.1 15640 17397.8 15590.7C17138.3 15679 16885.1 15785.5 16640 15909.4C16727.6 16500.7 17390.4 16960.3 18195 16960.3C19996.8 16957.5 20108.1 15151.5 20108.1 14497.7C20108.1 13843.1 20007.6 14566.2 18194.7 14590.6ZM9317.92 15603.6C9018.06 11046.7 10964.4 8044 15495.2 8044H15534.6C20065.3 8044 22011.9 11046.6 21712.1 15603.6C21469.9 19281 18926.7 22684.5 15515.1 22684.5C12103.3 22684.5 9559.79 19281.2 9317.92 15603.6ZM12840.3 14094.6C13801.7 14103 14793.1 14687.5 14868.1 15667.5C14870.8 15703.1 14872.3 15739.5 14872.3 15775.9C14872.3 16058.2 14800.4 16301.2 14680 16508.7L14334 17105L14996 16950.6C15185.3 16906.2 15366.2 16891.5 15504.6 16891.5C15644.1 16891.8 15828.4 16906.9 16020.8 16952L16684.4 17107.1L16306.9 16508.7C16186 16301 16144 16058.5 16144 15775.9C16144 15739.5 16145.4 15703.1 16147.9 15667.5C16222.8 14690 17209.3 14106 18168.5 14094.7C19523.3 14012 20187.7 12565 19952 11321.6C19371.6 8253.78 15812.6 9363.92 16194.3 11365.5C16589.7 13437.4 18714.3 12651.4 18533 11629.9C18342.8 10557.9 17354.4 12052.9 17563.2 12436.2C17563.2 12436.2 18391.6 11356.7 18136.4 11504.8C17810 11694.1 18194.7 10491.7 18194.7 10491.7C17468.3 9159.96 18512 9332.85 18896.6 11500.2C19240.6 13439.9 16113.1 14460.3 15549.4 11504.8C15293.9 10164.3 16177.7 9153.4 17281.5 8833.85C17004.4 8768.41 16723.6 8720.19 16440.8 8689.46C16329 8729.55 16235.5 8766.24 16160.8 8799.68C16049 8849.53 15962.1 8898.5 15900.5 8946.73C15838.7 8995.84 15776.5 9065.08 15713.9 9154.73C15651.8 9242.75 15582.4 9361.4 15504.9 9511.12C15427.5 9361.4 15357.9 9242.75 15295.8 9154.73C15233 9065.08 15171 8995.7 15109.4 8946.73C15047.7 8898.5 14961 8849.53 14849.1 8799.68C14755.5 8758.97 14660.5 8721.67 14564.3 8687.83C14280.4 8718.04 13998.5 8766.01 13720.4 8831.48C14827.9 9148.37 15716.8 10161 15460.4 11504.8C14896.6 14460.4 11776.6 13440.1 12120.8 11500.2C12505.4 9332.85 13539.1 9159.96 12812.5 10491.7C12812.5 10491.7 13164.9 11689.4 12838.5 11500.2C12583.3 11352.1 13659.8 12436.2 13659.8 12436.2C13868.9 12053 12667.4 10558.1 12477.1 11629.9C12295.9 12651.4 14420.4 13437.6 14815.7 11365.5C15197.5 9363.92 11638.3 8253.78 11057.8 11321.6C10822.8 12564.7 11486.6 14011.1 12840.3 14094.6ZM12120.8 17368C10931.8 17045.4 10050 15142.9 10050 13761.9C10050 13144.7 10724.6 13667.8 11153.4 13761.9C10641.7 13241 10343.7 12530.9 10356.3 11733.6C9947.82 12787.5 9802.38 14079.9 9899.97 15563.5C9971.16 16645.4 10249.7 17712.4 10689.1 18670.5C10745 18281 10946 17913.8 11272.7 17671.3C11573.3 17447.8 11861.6 17360.3 12120.8 17368ZM13013.6 19378.8C13211.8 19192.7 13518.1 19063 13902.6 18970.2L14444.8 18838.6L13863.1 18485.9C13653.5 18294.3 13514.3 17992.3 13611.6 17753.9L14100.7 17179.4L13515 17353.5C13289.5 17420.8 13055.8 17455.5 12820.8 17456.7C12697 17456.4 12573.3 17448.6 12450.4 17433.1C13178.5 17706.7 13542.2 18766.8 13013.6 19378.8ZM18896.6 17367.7C19152.3 17363.2 19435.7 17451.6 19731 17671.2C20070.1 17922.5 20273.8 18308.6 20320.2 18714.6C20771.4 17745.4 21057.4 16662.2 21129.9 15563.3C21227.9 14069.4 21074.6 12769.2 20653 11711.4C20671.7 12518.6 20372.1 13237.6 19854.6 13763.5C20287.6 13665.1 20961.7 13141.1 20961.7 13761.9C20961.7 15142.7 20085 17044.8 18896.6 17367.7ZM17978.7 19365.5C17468.6 18752.9 17828.9 17710.2 18547.4 17435.6C18435.3 17449.3 18317.8 17456.7 18195.3 17457C17961.8 17456 17729.6 17421.6 17505.4 17354.9L16922 17183L17408.8 17753.9C17505.4 17991.2 17463.6 18293.3 17251.8 18485.9L16568.5 18839.3L17111.4 18972.1C17483.3 19062.4 17781.3 19187.5 17978.7 19365.5ZM18722.7 19053.2C18089 18856.9 18567 17681.8 19355.9 18282.6C20061.7 18819.6 19261.2 20350.6 18162.3 19538C18131.8 19515.5 18102.5 19491.3 18074.7 19465.5C18245.6 19675.9 18296.7 19950 18194.7 20310.3C18041 20853.6 17962.4 21474.9 17476.4 21472.1C16911.5 21468.4 16027.4 22398.7 15515.2 22398.7C15003.1 22398.7 14080.1 21468.3 13515 21472.1C13028.8 21475.2 12966.1 20853.6 12812.5 20310.3C12708.5 19942.3 12764.1 19664.4 12944.2 19451.9C12911.7 19482.6 12877.5 19511.4 12841.6 19538C11742.8 20350.5 10942.3 18819.6 11648 18282.6C12436.9 17681.8 12914.9 18856.9 12281.2 19053.2C12281.2 19053.2 12144.3 19071.1 12098.9 18956.5C12053.6 18842 12210.2 18766.4 12210.2 18766.4C12349.4 18723 12297.6 18579.1 12232.6 18485.9C12068.6 18250.2 11383.9 18599.9 11788.1 19244.1C12180.6 19869.7 12755.8 20016.2 12098.9 18956.5C11483.8 17964.7 10522.9 18149.6 11032.4 19339.2C12055.6 21130.3 13672.1 22398.7 15515.2 22398.7C17295.6 22398.7 18864.9 21215.5 19891.9 19520.1C20645.7 18259.7 19550.7 17916.2 18905.4 18956.5C18248.5 20016.2 18823.8 19869.7 19216.3 19244.1C19620.4 18599.9 18935.4 18250.2 18771.8 18485.9C18706.6 18579.2 18654.7 18723.2 18794.2 18766.4C18794.2 18766.4 18950.6 18842 18905.4 18956.5C18859.4 19071.1 18722.7 19053.2 18722.7 19053.2ZM13764.6 19886.9C13826.7 19735.5 14247.9 19454 14695.1 19382.7C15189.8 19303.5 15416.3 19408.7 15506.8 19528.1C15597.1 19408.6 15823.8 19303.1 16318.4 19382.7C16772.8 19455.2 17200.4 19744.5 17251.8 19894.1C16741.2 19751.2 16139.6 19886.9 15495.2 19886.9C14861.7 19886.6 14269.4 19748.2 13764.6 19886.9ZM15296.8 13372.2C15358.6 13259.6 15405.9 11557.1 15483.1 11365.5C15560.2 11557.1 15652.1 13259.6 15713.9 13372.2C15776.2 13486.8 16379.3 12988.2 16440.8 13050.9C16502.4 13112.4 16047.7 13762.6 16159 13826.4C16270.5 13890.1 17769.3 13761.9 17769.3 13761.9C17575.6 13844.7 16270.3 14202.4 16159 14266.2C16047.4 14330.1 15961.2 14392.5 15899.6 14454.2C15838.1 14517.1 15775.9 14605.7 15713.9 14720.4C15652.1 14832.9 15579.6 14832.2 15502.3 15023.8C15425.2 14832.2 15358.8 14832.9 15296.8 14720.4C15296.8 14720.4 15172.4 14516.9 15111 14454.2C15049.5 14392.5 14963 14330.1 14851.5 14266.2C14740 14202.4 13434.3 13844.7 13240.4 13761.9C13434.3 13678.9 14740.2 13890 14851.5 13826.4C14963 13762.5 14502.8 13115.8 14564.3 13054.3C14625.8 12991.5 15234.3 13486.8 15296.8 13372.2Z" fill="#333333"/>
</svg>
