<svg width="31529" height="31129" viewBox="0 0 31529 31129" fill="none" xmlns="http://www.w3.org/2000/svg">
<path d="M31129 15364.5C31129 23850.1 24250.1 30729 15764.5 30729C7278.92 30729 400 23850.1 400 15364.5C400 6878.92 7278.92 0 15764.5 0C24250.1 0 31129 6878.92 31129 15364.5Z" fill="white"/>
<path d="M31129 15364.5C31129 23850.1 24250.1 30729 15764.5 30729C7278.92 30729 400 23850.1 400 15364.5C400 6878.92 7278.92 0 15764.5 0C24250.1 0 31129 6878.92 31129 15364.5Z" stroke="black"/>
<path d="M31129 15365C31129 23850.3 24250.1 30729 15764.5 30729C7278.92 30729 400 23850.3 400 15365" stroke="black" stroke-width="800"/>
<path d="M14454.2 18775.4C14210.6 18843.4 14068.8 18947.7 14054.9 19062.6C14019.6 19361.6 14282.4 19405.1 14618.3 19419H16894.8C17230.7 19405.3 17493.9 19361.8 17458.3 19062.6C17445.1 18947.7 17303.1 18843.4 17059.1 18775.4C16940.9 18479 16403.7 14881.2 15746.4 14878.9C15103.6 14880.4 14572.5 18478.6 14454.2 18775.4ZM13011.5 21271.6C12097.1 21571.9 12492.4 23133.5 13406.8 22833C13685.3 22741.6 13998.4 22680.2 14337 22639.6C14171.3 22525.8 14041.5 22391.3 13958.7 22243.7C14413.6 22411.6 15036.5 22833 15736.3 22833C16450.5 22833 17105.7 22407 17562.4 22233.2C17481.3 22381.8 17352.8 22517.2 17188.3 22632.7C17544.6 22672.8 17873.7 22736.6 18168.6 22833C19083.2 23133.7 19478.2 21571.9 18563.9 21271.6C17768.8 21010.6 16809.1 20862.4 15787.4 20862.4C14765.6 20862.4 13806.8 21010.6 13011.5 21271.6ZM11920 14260.7C9332.41 14225.8 9189.4 13193.8 9189.4 14128.1C9189.4 15061.4 9348.13 17638.8 11919.8 17643.3C13065.9 17643.3 14010.2 16989.3 14138.1 16147.5C13785.6 15968.9 13421.3 15815.5 13047.9 15688.5C13101.9 15758.6 13140.8 15839.7 13162 15926.2C13183.1 16012.8 13186.2 16102.9 13170.8 16190.8C13151.8 16301.8 13104 16405.6 13032.4 16491.5C13320 16501.4 13577.1 16483.6 13783.2 16441.6C13597.8 16710 13099.6 16854.4 12518.1 16777.1C11932.2 16699.9 10615.3 16024.8 10445.2 15706.4C10642.2 15801.8 11714.3 16283.5 11993.9 16350.6C11939.2 16232.1 11921.9 16099.3 11944.4 15970.3C11963.5 15858.9 12011.6 15754.6 12083.5 15668.5C12155.5 15582.4 12248.7 15517.4 12353.6 15480.5C11523.2 15265.1 9998.39 15432.5 9402.98 15480.1C9904.23 14969.7 11711.2 14557.3 12811.5 14879.3C13299.3 15022.1 13730.2 15241.2 14072.7 15502.4C13812.8 14786.2 12947.3 14260.7 11920 14260.7ZM19589.2 14260.7C18566.4 14260.7 17704.2 14781.6 17439.3 15492.5C17779.9 15235.6 18206.1 15020 18687.9 14878.9C19787.8 14557.1 21510.3 14969.7 22011.4 15480.1C21416.4 15432.5 19976.4 15264.7 19145.9 15480.1C19228.3 15509.2 19303.9 15555.7 19367.6 15616.6C19431.3 15677.5 19481.8 15751.3 19515.7 15833.4C19549.7 15915.4 19566.4 16003.8 19564.7 16092.8C19563 16181.9 19543 16269.6 19506 16350.2C19785.6 16283.5 20849.9 15801.8 21047.2 15706.4C20877 16024.8 19567.4 16699.2 18981.9 16776.7C18400.2 16854 17902.1 16709.8 17716.8 16441.2C17923 16483.2 18179.8 16501 18467.5 16491C18396.1 16405 18348.2 16301.3 18328.8 16190.4C18313.7 16102.5 18316.9 16012.4 18338 15925.9C18359.2 15839.4 18397.9 15758.3 18451.7 15688C18081.4 15814.1 17720 15966.1 17370.2 16142.8C17495.2 16986.8 18441.2 17642.8 19589.6 17642.8C22161.2 17638.8 22319.9 15061.1 22319.9 14128.1C22319.9 13193.8 22176.5 14225.8 19589.2 14260.7ZM6919.71 15706.4C6491.72 9202.65 9269.7 4917 15736.3 4917H15792.5C22258.9 4917 25037.3 9202.44 24609.3 15706.4C24263.7 20955.1 20633.9 25812.8 15764.6 25812.8C10895.1 25812.8 7264.91 20955.3 6919.71 15706.4ZM11947.1 13552.7C13319.2 13564.7 14734.2 14399 14841.2 15797.6C14845.1 15848.5 14847.2 15900.5 14847.2 15952.4C14847.2 16355.3 14744.5 16702.2 14572.7 16998.2L14078.9 17849.3L15023.7 17628.9C15294 17565.6 15552.1 17544.7 15749.7 17544.7C15948.8 17545.1 16211.8 17566.6 16486.5 17631L17433.5 17852.3L16894.8 16998.2C16722.2 16701.8 16662.2 16355.7 16662.2 15952.4C16662.2 15900.5 16664.2 15848.5 16667.8 15797.6C16774.8 14402.6 18182.7 13569 19551.7 13552.9C21485.3 13434.9 22433.6 11369.7 22097.3 9594.97C21268.8 5216.41 16189.3 6800.85 16734 9657.68C17298.4 12614.8 20330.7 11493 20072 10035C19800.5 8505.02 18389.8 10638.6 18687.9 11185.7C18687.9 11185.7 19870.2 9645.01 19506 9856.36C19040.1 10126.6 19589.2 8410.51 19589.2 8410.51C18552.3 6509.76 20042 6756.51 20590.8 9849.82C21081.9 12618.4 16618.1 14074.7 15813.7 9856.36C15449 7943.16 16710.4 6500.39 18285.7 6044.31C17890.2 5950.92 17489.5 5882.1 17085.8 5838.24C16926.3 5895.46 16792.8 5947.82 16686.2 5995.54C16526.6 6066.7 16402.7 6136.59 16314.7 6205.42C16226.5 6275.52 16137.7 6374.34 16048.3 6502.29C15959.8 6627.93 15860.6 6797.27 15750.1 7010.95C15639.6 6797.27 15540.3 6627.93 15451.7 6502.29C15362.1 6374.34 15273.5 6275.31 15185.5 6205.42C15097.6 6136.59 14973.8 6066.7 14814.1 5995.54C14680.5 5937.45 14544.9 5884.2 14407.6 5835.91C14002.4 5879.03 13600.1 5947.5 13203.1 6040.94C14783.8 6493.21 16052.5 7938.52 15686.6 9856.36C14881.9 14074.9 10428.9 12618.6 10920.2 9849.82C11469 6756.51 12944.4 6509.76 11907.4 8410.51C11907.4 8410.51 12410.3 10119.9 11944.4 9849.82C11580.2 9638.46 13116.6 11185.7 13116.6 11185.7C13415.1 10638.9 11700.2 8505.23 11428.7 10035C11170 11493 14202.3 12615 14766.5 9657.68C15311.4 6800.85 10231.4 5216.41 9402.98 9594.97C9067.5 11369.2 10014.9 13433.6 11947.1 13552.7ZM10920.2 18224.8C9223.13 17764.2 7964.5 15048.9 7964.5 13077.8C7964.5 12196.9 8927.39 12943.5 9539.36 13077.8C8809.01 12334.4 8383.72 11320.9 8401.72 10183C7818.73 11687.2 7611.15 13531.8 7750.43 15649.2C7852.05 17193.3 8249.61 18716.3 8876.69 20083.7C8956.57 19527.7 9243.41 19003.7 9709.69 18657.6C10138.7 18338.6 10550.1 18213.8 10920.2 18224.8ZM12194.4 21094.7C12477.3 20829 12914.4 20643.9 13463.3 20511.5L14237.1 20323.6L13406.8 19820.2C13107.7 19546.8 12909 19115.8 13047.9 18775.4L13746 17955.5L12910.1 18204.1C12588.1 18300 12254.6 18349.5 11919.2 18351.2C11742.5 18350.9 11566 18339.7 11390.6 18317.7C12429.7 18708.1 12948.8 20221.2 12194.4 21094.7ZM20590.8 18224.3C20955.9 18217.8 21360.3 18344.1 21781.9 18657.4C22265.7 19016.1 22556.5 19567.2 22622.7 20146.6C23266.8 18763.4 23674.9 17217.4 23778.4 15649C23918.3 13516.8 23699.5 11661 23097.7 10151.3C23124.4 11303.4 22696.8 12329.5 21958.2 13080.2C22576.2 12939.7 23538.4 12191.9 23538.4 13077.8C23538.4 15048.7 22287 17763.4 20590.8 18224.3ZM19280.8 21075.7C18552.7 20201.3 19067 18713.1 20092.5 18321.3C19932.5 18340.7 19764.9 18351.2 19590 18351.7C19256.7 18350.3 18925.2 18301.3 18605.3 18206L17772.7 17960.6L18467.5 18775.4C18605.3 19114.1 18545.7 19545.3 18243.3 19820.2L17268.1 20324.6L18043 20514.2C18573.8 20643 18999.1 20821.7 19280.8 21075.7ZM20342.7 20629.9C19438.3 20349.7 20120.4 18672.6 21246.5 19530.1C22253.7 20296.5 21111.3 22481.7 19542.8 21321.9C19499.3 21289.8 19457.5 21255.2 19417.8 21218.4C19661.8 21518.7 19734.7 21909.9 19589.2 22424.1C19369.8 23199.6 19257.6 24086.3 18563.9 24082.3C17757.6 24077.1 16495.8 25404.8 15764.8 25404.8C15033.8 25404.8 13716.6 24076.8 12910.1 24082.3C12216.1 24086.8 12126.5 23199.6 11907.4 22424.1C11759 21898.9 11838.2 21502.2 12095.3 21199C12048.9 21242.8 12000.1 21283.9 11949 21321.9C10380.6 22481.5 9238.03 20296.5 10245.3 19530.1C11371.3 18672.6 12053.5 20349.7 11149.1 20629.9C11149.1 20629.9 10953.7 20655.5 10888.9 20491.8C10824.1 20328.4 11047.7 20220.5 11047.7 20220.5C11246.3 20158.7 11172.5 19953.2 11079.7 19820.2C10845.7 19483.8 9868.42 19983 10445.2 20902.3C11005.4 21795.3 11826.4 22004.3 10888.9 20491.8C10011 19076.3 8639.52 19340.2 9366.76 21038.1C10827 23594.4 13134.2 25404.8 15764.8 25404.8C18305.8 25404.8 20545.7 23716.1 22011.4 21296.3C23087.3 19497.3 21524.4 19007.1 20603.5 20491.8C19665.9 22004.3 20486.9 21795.3 21047.2 20902.3C21624 19983 20646.3 19483.8 20412.8 19820.2C20319.7 19953.4 20245.6 20158.9 20444.7 20220.5C20444.7 20220.5 20668 20328.4 20603.5 20491.8C20537.8 20655.5 20342.7 20629.9 20342.7 20629.9ZM13266.2 21819.7C13354.8 21603.7 13956 21201.9 14594.3 21100.2C15300.4 20987.2 15623.7 21137.3 15752.8 21307.7C15881.7 21137.1 16205.2 20986.6 16911.1 21100.2C17559.7 21203.6 18170.1 21616.6 18243.3 21830.1C17514.6 21626.1 16656 21819.7 15736.3 21819.7C14832.1 21819.3 13986.6 21621.9 13266.2 21819.7ZM15453.1 12521.7C15541.3 12361 15608.8 9931.11 15718.9 9657.68C15829 9931.11 15960.2 12361 16048.3 12521.7C16137.3 12685.3 16998.1 11973.6 17085.8 12063.1C17173.8 12150.9 16524.8 13078.9 16683.7 13169.9C16842.9 13260.9 18981.9 13077.8 18981.9 13077.8C18705.5 13196.1 16842.4 13706.6 16683.7 13797.6C16524.3 13888.9 16401.4 13978 16313.5 14066C16225.7 14155.7 16136.9 14282.2 16048.3 14445.9C15960.2 14606.5 15856.7 14605.5 15746.4 14878.9C15636.3 14605.5 15541.5 14606.5 15453.1 14445.9C15453.1 14445.9 15275.6 14155.5 15187.8 14066C15100.1 13978 14976.7 13888.9 14817.6 13797.6C14658.4 13706.6 12794.8 13196.1 12518.1 13077.8C12794.8 12959.4 14658.6 13260.7 14817.6 13169.9C14976.7 13078.7 14319.8 12155.7 14407.6 12067.9C14495.3 11978.4 15363.9 12685.3 15453.1 12521.7Z" fill="black"/>
</svg>
