<svg width="31529" height="31129" viewBox="0 0 31529 31129" fill="none" xmlns="http://www.w3.org/2000/svg">
<path d="M31129 15364.5C31129 23850.1 24250.1 30729 15764.5 30729C7278.92 30729 400 23850.1 400 15364.5C400 6878.92 7278.92 0 15764.5 0C24250.1 0 31129 6878.92 31129 15364.5Z" fill="white"/>
<path d="M31129 15364.5C31129 23850.1 24250.1 30729 15764.5 30729C7278.92 30729 400 23850.1 400 15364.5C400 6878.92 7278.92 0 15764.5 0C24250.1 0 31129 6878.92 31129 15364.5Z" stroke="black"/>
<path d="M31129 15365C31129 23850.3 24250.1 30729 15764.5 30729C7278.92 30729 400 23850.3 400 15365" stroke="black" stroke-width="800"/>
<path d="M14846.9 17753.9C14676.2 17801.5 14576.9 17874.6 14567.2 17955.1C14542.4 18164.5 14726.6 18195 14961.9 18204.8H16556.9C16792.3 18195.2 16976.7 18164.7 16951.8 17955.1C16942.5 17874.6 16843 17801.5 16672.1 17753.9C16589.3 17546.2 16212.8 15025.4 15752.3 15023.8C15301.9 15024.8 14929.9 17545.9 14846.9 17753.9ZM13836.1 19502.8C13195.5 19713.2 13472.4 20807.3 14113.1 20596.8C14308.2 20532.8 14527.6 20489.7 14764.8 20461.3C14648.7 20381.6 14557.8 20287.3 14499.8 20183.9C14818.5 20301.5 15255 20596.8 15745.2 20596.8C16245.6 20596.8 16704.7 20298.3 17024.7 20176.5C16967.9 20280.7 16877.8 20375.5 16762.6 20456.4C17012.2 20484.5 17242.8 20529.2 17449.4 20596.8C18090.2 20807.5 18367 19713.2 17726.4 19502.8C17169.3 19320 16496.9 19216.1 15781 19216.1C15065.1 19216.1 14393.3 19320 13836.1 19502.8ZM13071.3 14590.6C11258.4 14566.2 11158.2 13843.1 11158.2 14497.7C11158.2 15151.6 11269.4 16957.5 13071.2 16960.6C13874.2 16960.6 14535.9 16502.4 14625.5 15912.6C14378.5 15787.5 14123.2 15680 13861.6 15591C13899.5 15640.2 13926.7 15696.9 13941.5 15757.6C13956.4 15818.2 13958.5 15881.4 13947.7 15942.9C13934.4 16020.7 13900.9 16093.5 13850.7 16153.6C14052.3 16160.6 14232.4 16148.1 14376.8 16118.7C14246.9 16306.7 13897.9 16407.9 13490.4 16353.8C13079.9 16299.6 12157.2 15826.7 12038.1 15603.6C12176.1 15670.4 12927.2 16007.9 13123.1 16054.9C13084.8 15971.9 13072.7 15878.8 13088.5 15788.5C13101.9 15710.4 13135.5 15637.4 13185.9 15577C13236.3 15516.7 13301.7 15471.2 13375.1 15445.3C12793.4 15294.4 11725 15411.7 11307.8 15445C11659 15087.4 12925 14798.5 13696 15024.1C14037.8 15124.1 14339.7 15277.7 14579.7 15460.7C14397.5 14958.8 13791.1 14590.6 13071.3 14590.6ZM18444.7 14590.6C17728.1 14590.6 17124 14955.6 16938.4 15453.7C17177.1 15273.7 17475.7 15122.6 17813.2 15023.8C18583.9 14798.3 19790.8 15087.4 20141.9 15445C19725 15411.7 18716 15294.1 18134.1 15445C18191.9 15465.4 18244.9 15498 18289.5 15540.6C18334.1 15583.3 18369.5 15635 18393.3 15692.5C18417.1 15750 18428.8 15811.9 18427.6 15874.3C18426.4 15936.7 18412.4 15998.1 18386.4 16054.6C18582.3 16007.9 19328.1 15670.4 19466.3 15603.6C19347.1 15826.7 18429.5 16299.2 18019.3 16353.5C17611.7 16407.6 17262.7 16306.6 17132.9 16118.4C17277.3 16147.8 17457.3 16160.3 17658.8 16153.3C17608.8 16093 17575.3 16020.4 17561.7 15942.6C17551.1 15881.1 17553.3 15818 17568.1 15757.3C17583 15696.7 17610.1 15640 17647.8 15590.7C17388.3 15679 17135.1 15785.5 16890 15909.4C16977.6 16500.7 17640.4 16960.3 18445 16960.3C20246.8 16957.5 20358.1 15151.5 20358.1 14497.7C20358.1 13843.1 20257.6 14566.2 18444.7 14590.6ZM9567.92 15603.6C9268.06 11046.7 11214.4 8044 15745.2 8044H15784.6C20315.3 8044 22261.9 11046.6 21962.1 15603.6C21719.9 19281 19176.7 22684.5 15765.1 22684.5C12353.3 22684.5 9809.79 19281.2 9567.92 15603.6ZM13090.3 14094.6C14051.7 14103 15043.1 14687.5 15118.1 15667.5C15120.8 15703.1 15122.3 15739.5 15122.3 15775.9C15122.3 16058.2 15050.4 16301.2 14930 16508.7L14584 17105L15246 16950.6C15435.3 16906.2 15616.2 16891.5 15754.6 16891.5C15894.1 16891.8 16078.4 16906.9 16270.8 16952L16934.4 17107.1L16556.9 16508.7C16436 16301 16394 16058.5 16394 15775.9C16394 15739.5 16395.4 15703.1 16397.9 15667.5C16472.8 14690 17459.3 14106 18418.5 14094.7C19773.3 14012 20437.7 12565 20202 11321.6C19621.6 8253.78 16062.6 9363.92 16444.3 11365.5C16839.7 13437.4 18964.3 12651.4 18783 11629.9C18592.8 10557.9 17604.4 12052.9 17813.2 12436.2C17813.2 12436.2 18641.6 11356.7 18386.4 11504.8C18060 11694.1 18444.7 10491.7 18444.7 10491.7C17718.3 9159.96 18762 9332.85 19146.6 11500.2C19490.6 13439.9 16363.1 14460.3 15799.4 11504.8C15543.9 10164.3 16427.7 9153.4 17531.5 8833.85C17254.4 8768.41 16973.6 8720.19 16690.8 8689.46C16579 8729.55 16485.5 8766.24 16410.8 8799.68C16299 8849.53 16212.1 8898.5 16150.5 8946.73C16088.7 8995.84 16026.5 9065.08 15963.9 9154.73C15901.8 9242.75 15832.4 9361.4 15754.9 9511.12C15677.5 9361.4 15607.9 9242.75 15545.8 9154.73C15483 9065.08 15421 8995.7 15359.4 8946.73C15297.7 8898.5 15211 8849.53 15099.1 8799.68C15005.5 8758.97 14910.5 8721.67 14814.3 8687.83C14530.4 8718.04 14248.5 8766.01 13970.4 8831.48C15077.9 9148.37 15966.8 10161 15710.4 11504.8C15146.6 14460.4 12026.6 13440.1 12370.8 11500.2C12755.4 9332.85 13789.1 9159.96 13062.5 10491.7C13062.5 10491.7 13414.9 11689.4 13088.5 11500.2C12833.3 11352.1 13909.8 12436.2 13909.8 12436.2C14118.9 12053 12917.4 10558.1 12727.1 11629.9C12545.9 12651.4 14670.4 13437.6 15065.7 11365.5C15447.5 9363.92 11888.3 8253.78 11307.8 11321.6C11072.8 12564.7 11736.6 14011.1 13090.3 14094.6ZM12370.8 17368C11181.8 17045.4 10300 15142.9 10300 13761.9C10300 13144.7 10974.6 13667.8 11403.4 13761.9C10891.7 13241 10593.7 12530.9 10606.3 11733.6C10197.8 12787.5 10052.4 14079.9 10150 15563.5C10221.2 16645.4 10499.7 17712.4 10939.1 18670.5C10995 18281 11196 17913.8 11522.7 17671.3C11823.3 17447.8 12111.6 17360.3 12370.8 17368ZM13263.6 19378.8C13461.8 19192.7 13768.1 19063 14152.6 18970.2L14694.8 18838.6L14113.1 18485.9C13903.5 18294.3 13764.3 17992.3 13861.6 17753.9L14350.7 17179.4L13765 17353.5C13539.5 17420.8 13305.8 17455.5 13070.8 17456.7C12947 17456.4 12823.3 17448.6 12700.4 17433.1C13428.5 17706.7 13792.2 18766.8 13263.6 19378.8ZM19146.6 17367.7C19402.3 17363.2 19685.7 17451.6 19981 17671.2C20320.1 17922.5 20523.8 18308.6 20570.2 18714.6C21021.4 17745.4 21307.4 16662.2 21379.9 15563.3C21477.9 14069.4 21324.6 12769.2 20903 11711.4C20921.7 12518.6 20622.1 13237.6 20104.6 13763.5C20537.6 13665.1 21211.7 13141.1 21211.7 13761.9C21211.7 15142.7 20335 17044.8 19146.6 17367.7ZM18228.7 19365.5C17718.6 18752.9 18078.9 17710.2 18797.4 17435.6C18685.3 17449.3 18567.8 17456.7 18445.3 17457C18211.8 17456 17979.6 17421.6 17755.4 17354.9L17172 17183L17658.8 17753.9C17755.4 17991.2 17713.6 18293.3 17501.8 18485.9L16818.5 18839.3L17361.4 18972.1C17733.3 19062.4 18031.3 19187.5 18228.7 19365.5ZM18972.7 19053.2C18339 18856.9 18817 17681.8 19605.9 18282.6C20311.7 18819.6 19511.2 20350.6 18412.3 19538C18381.8 19515.5 18352.5 19491.3 18324.7 19465.5C18495.6 19675.9 18546.7 19950 18444.7 20310.3C18291 20853.6 18212.4 21474.9 17726.4 21472.1C17161.5 21468.4 16277.4 22398.7 15765.2 22398.7C15253.1 22398.7 14330.1 21468.3 13765 21472.1C13278.8 21475.2 13216.1 20853.6 13062.5 20310.3C12958.5 19942.3 13014.1 19664.4 13194.2 19451.9C13161.7 19482.6 13127.5 19511.4 13091.6 19538C11992.8 20350.5 11192.3 18819.6 11898 18282.6C12686.9 17681.8 13164.9 18856.9 12531.2 19053.2C12531.2 19053.2 12394.3 19071.1 12348.9 18956.5C12303.6 18842 12460.2 18766.4 12460.2 18766.4C12599.4 18723 12547.6 18579.1 12482.6 18485.9C12318.6 18250.2 11633.9 18599.9 12038.1 19244.1C12430.6 19869.7 13005.8 20016.2 12348.9 18956.5C11733.8 17964.7 10772.9 18149.6 11282.4 19339.2C12305.6 21130.3 13922.1 22398.7 15765.2 22398.7C17545.6 22398.7 19114.9 21215.5 20141.9 19520.1C20895.7 18259.7 19800.7 17916.2 19155.4 18956.5C18498.5 20016.2 19073.8 19869.7 19466.3 19244.1C19870.4 18599.9 19185.4 18250.2 19021.8 18485.9C18956.6 18579.2 18904.7 18723.2 19044.2 18766.4C19044.2 18766.4 19200.6 18842 19155.4 18956.5C19109.4 19071.1 18972.7 19053.2 18972.7 19053.2ZM14014.6 19886.9C14076.7 19735.5 14497.9 19454 14945.1 19382.7C15439.8 19303.5 15666.3 19408.7 15756.8 19528.1C15847.1 19408.6 16073.8 19303.1 16568.4 19382.7C17022.8 19455.2 17450.4 19744.5 17501.8 19894.1C16991.2 19751.2 16389.6 19886.9 15745.2 19886.9C15111.7 19886.6 14519.4 19748.2 14014.6 19886.9ZM15546.8 13372.2C15608.6 13259.6 15655.9 11557.1 15733.1 11365.5C15810.2 11557.1 15902.1 13259.6 15963.9 13372.2C16026.2 13486.8 16629.3 12988.2 16690.8 13050.9C16752.4 13112.4 16297.7 13762.6 16409 13826.4C16520.5 13890.1 18019.3 13761.9 18019.3 13761.9C17825.6 13844.7 16520.3 14202.4 16409 14266.2C16297.4 14330.1 16211.2 14392.5 16149.6 14454.2C16088.1 14517.1 16025.9 14605.7 15963.9 14720.4C15902.1 14832.9 15829.6 14832.2 15752.3 15023.8C15675.2 14832.2 15608.8 14832.9 15546.8 14720.4C15546.8 14720.4 15422.4 14516.9 15361 14454.2C15299.5 14392.5 15213 14330.1 15101.5 14266.2C14990 14202.4 13684.3 13844.7 13490.4 13761.9C13684.3 13678.9 14990.2 13890 15101.5 13826.4C15213 13762.5 14752.8 13115.8 14814.3 13054.3C14875.8 12991.5 15484.3 13486.8 15546.8 13372.2Z" fill="#333333"/>
</svg>
